<svg aria-hidden="true" style="position: absolute; width: 0; height: 0; overflow: hidden;" version="1.1" xmlns="http://www.w3.org/2000/svg" xmlns:xlink="http://www.w3.org/1999/xlink">
<defs>
<symbol id="icon-facebook-1" viewBox="0 0 32 32">
<path fill="#f4f4fd" style="fill: var(--color1, #f4f4fd)" d="M21.329 5.313h2.921v-5.088c-0.504-0.069-2.237-0.225-4.256-0.225-4.212 0-7.097 2.649-7.097 7.519v4.481h-4.648v5.688h4.648v14.312h5.699v-14.311h4.46l0.708-5.688h-5.169v-3.919c0.001-1.644 0.444-2.769 2.735-2.769v0z"></path>
</symbol>
<symbol id="icon-instagram-2" viewBox="0 0 32 32">
<path fill="#fff" style="fill: var(--color2, #fff)" d="M0 0h32v32h-32v-32z"></path>
<path fill="#f4f4fd" style="fill: var(--color1, #f4f4fd)" d="M31.969 9.408c-0.075-1.7-0.35-2.869-0.744-3.882-0.406-1.075-1.031-2.038-1.85-2.838-0.8-0.813-1.769-1.444-2.832-1.844-1.019-0.394-2.182-0.669-3.882-0.744-1.713-0.081-2.257-0.1-6.601-0.1s-4.888 0.019-6.595 0.094c-1.7 0.075-2.869 0.35-3.882 0.744-1.075 0.406-2.038 1.031-2.838 1.85-0.813 0.8-1.444 1.769-1.844 2.832-0.394 1.019-0.669 2.182-0.744 3.882-0.081 1.713-0.1 2.257-0.1 6.601s0.019 4.888 0.094 6.595c0.075 1.7 0.35 2.869 0.744 3.882 0.406 1.075 1.038 2.038 1.85 2.838 0.8 0.813 1.769 1.444 2.832 1.844 1.019 0.394 2.182 0.669 3.882 0.744 1.706 0.075 2.25 0.094 6.595 0.094s4.888-0.018 6.595-0.094c1.7-0.075 2.869-0.35 3.882-0.744 2.151-0.831 3.851-2.532 4.682-4.682 0.394-1.019 0.669-2.182 0.744-3.882 0.075-1.707 0.094-2.251 0.094-6.595s-0.006-4.888-0.081-6.595zM29.087 22.473c-0.069 1.563-0.331 2.407-0.55 2.969-0.538 1.394-1.644 2.501-3.038 3.038-0.563 0.219-1.413 0.481-2.969 0.55-1.688 0.075-2.194 0.094-6.464 0.094s-4.782-0.018-6.464-0.094c-1.563-0.069-2.407-0.331-2.969-0.55-0.694-0.256-1.325-0.663-1.838-1.194-0.531-0.519-0.938-1.144-1.194-1.838-0.219-0.563-0.481-1.413-0.55-2.969-0.075-1.688-0.094-2.194-0.094-6.464s0.019-4.782 0.094-6.464c0.069-1.563 0.331-2.407 0.55-2.969 0.256-0.694 0.663-1.325 1.2-1.838 0.519-0.531 1.144-0.938 1.838-1.194 0.563-0.219 1.413-0.481 2.969-0.55 1.688-0.075 2.194-0.094 6.464-0.094 4.276 0 4.782 0.019 6.464 0.094 1.563 0.069 2.407 0.331 2.969 0.55 0.694 0.256 1.325 0.662 1.838 1.194 0.531 0.519 0.938 1.144 1.194 1.838 0.219 0.563 0.481 1.413 0.55 2.969 0.075 1.688 0.094 2.194 0.094 6.464s-0.019 4.77-0.094 6.457z"></path>
<path fill="#f4f4fd" style="fill: var(--color1, #f4f4fd)" d="M16.059 7.782c-4.538 0-8.22 3.682-8.22 8.22s3.682 8.22 8.22 8.22c4.538 0 8.22-3.682 8.22-8.22s-3.682-8.22-8.22-8.22zM16.059 21.335c-2.944 0-5.332-2.388-5.332-5.332s2.388-5.332 5.332-5.332c2.944 0 5.332 2.388 5.332 5.332s-2.388 5.332-5.332 5.332v0z"></path>
<path fill="#f4f4fd" style="fill: var(--color1, #f4f4fd)" d="M26.524 7.457c0 1.060-0.859 1.919-1.919 1.919s-1.919-0.859-1.919-1.919c0-1.060 0.859-1.919 1.919-1.919s1.919 0.859 1.919 1.919v0z"></path>
</symbol>
<symbol id="icon-linkedin-1" viewBox="0 0 32 32">
<path fill="#f4f4fd" style="fill: var(--color1, #f4f4fd)" d="M31.992 32v-0.001h0.008v-11.736c0-5.741-1.236-10.164-7.948-10.164-3.227 0-5.392 1.771-6.276 3.449h-0.093v-2.913h-6.364v21.364h6.627v-10.579c0-2.785 0.528-5.479 3.977-5.479 3.399 0 3.449 3.179 3.449 5.657v10.401h6.62z"></path>
<path fill="#f4f4fd" style="fill: var(--color1, #f4f4fd)" d="M0.528 10.636h6.635v21.364h-6.635v-21.364z"></path>
<path fill="#f4f4fd" style="fill: var(--color1, #f4f4fd)" d="M3.843-0c-2.121 0-3.843 1.721-3.843 3.843s1.721 3.879 3.843 3.879c2.121 0 3.843-1.757 3.843-3.879-0.001-2.121-1.723-3.843-3.843-3.843v0z"></path>
</symbol>
<symbol id="icon-Logo" viewBox="0 0 155 32">
<path fill="#4d5ae5" style="fill: var(--color3, #4d5ae5)" d="M8.581 6.984h3.624l1.776 5.448 1.776-5.448h3.648l-2.904 7.92 1.728 4.536 4.272-12.48h4.296l-6.648 17.040h-3.408l-2.76-6.672-2.736 6.672h-3.432l-6.624-17.040h4.272l4.296 12.48 1.68-4.536-2.856-7.92zM40.974 20.544v3.456h-11.976v-17.040h11.76v3.456h-7.824v3.312h6.72v3.192h-6.72v3.624h8.040zM58.173 19.632c0 0.976-0.264 1.792-0.792 2.448-0.512 0.64-1.208 1.12-2.088 1.44s-1.848 0.48-2.904 0.48h-8.304v-17.040h9.48c0.8 0 1.488 0.216 2.064 0.648 0.592 0.416 1.040 0.96 1.344 1.632 0.32 0.672 0.48 1.368 0.48 2.088 0 0.8-0.208 1.568-0.624 2.304-0.416 0.72-1.024 1.264-1.824 1.632 0.976 0.288 1.744 0.8 2.304 1.536 0.576 0.736 0.864 1.68 0.864 2.832zM54.165 18.84c0-0.368-0.072-0.688-0.216-0.96-0.144-0.288-0.336-0.512-0.576-0.672-0.224-0.176-0.496-0.264-0.816-0.264h-4.536v3.72h4.368c0.336 0 0.632-0.080 0.888-0.24 0.272-0.16 0.488-0.376 0.648-0.648s0.24-0.584 0.24-0.936zM48.021 10.32v3.528h3.864c0.288 0 0.552-0.064 0.792-0.192 0.256-0.128 0.464-0.32 0.624-0.576 0.16-0.272 0.24-0.608 0.24-1.008 0-0.384-0.072-0.704-0.216-0.96-0.128-0.256-0.304-0.448-0.528-0.576-0.224-0.144-0.48-0.216-0.768-0.216h-4.008z"></path>
<path fill="#2e2f42" style="fill: var(--color4, #2e2f42)" d="M71.856 11.952c-0.048-0.080-0.216-0.2-0.504-0.36-0.288-0.176-0.648-0.36-1.080-0.552s-0.904-0.36-1.416-0.504c-0.512-0.144-1.024-0.216-1.536-0.216-0.672 0-1.192 0.12-1.56 0.36-0.368 0.224-0.552 0.576-0.552 1.056 0 0.384 0.136 0.688 0.408 0.912 0.288 0.224 0.696 0.424 1.224 0.6 0.528 0.16 1.176 0.352 1.944 0.576 1.088 0.288 2.032 0.64 2.832 1.056 0.8 0.4 1.408 0.92 1.824 1.56 0.432 0.64 0.648 1.488 0.648 2.544 0 0.96-0.176 1.776-0.528 2.448-0.352 0.656-0.832 1.192-1.44 1.608-0.592 0.4-1.272 0.696-2.040 0.888-0.768 0.176-1.56 0.264-2.376 0.264-0.832 0-1.688-0.080-2.568-0.24-0.864-0.176-1.696-0.416-2.496-0.72-0.8-0.32-1.536-0.704-2.208-1.152l1.728-3.432c0.064 0.080 0.272 0.232 0.624 0.456 0.352 0.208 0.784 0.432 1.296 0.672 0.528 0.224 1.112 0.424 1.752 0.6s1.288 0.264 1.944 0.264c0.704 0 1.224-0.112 1.56-0.336 0.352-0.224 0.528-0.536 0.528-0.936 0-0.432-0.184-0.768-0.552-1.008-0.352-0.24-0.84-0.456-1.464-0.648-0.608-0.192-1.312-0.408-2.112-0.648-1.040-0.32-1.904-0.68-2.592-1.080-0.672-0.4-1.176-0.888-1.512-1.464-0.32-0.576-0.48-1.296-0.48-2.16 0-1.2 0.28-2.208 0.84-3.024 0.576-0.832 1.344-1.456 2.304-1.872 0.96-0.432 2.008-0.648 3.144-0.648 0.8 0 1.568 0.096 2.304 0.288 0.752 0.192 1.448 0.432 2.088 0.72 0.656 0.288 1.24 0.576 1.752 0.864l-1.728 3.264zM90.102 10.416h-5.184v13.584h-3.936v-13.584h-5.208v-3.456h14.328v3.456zM100.064 24.144c-1.36 0-2.52-0.224-3.48-0.672-0.96-0.464-1.744-1.088-2.352-1.872-0.592-0.8-1.032-1.704-1.32-2.712-0.272-1.024-0.408-2.096-0.408-3.216v-8.712h3.936v8.712c0 0.64 0.064 1.264 0.192 1.872 0.128 0.592 0.336 1.12 0.624 1.584s0.656 0.832 1.104 1.104c0.464 0.272 1.032 0.408 1.704 0.408 0.688 0 1.264-0.136 1.728-0.408 0.464-0.288 0.832-0.664 1.104-1.128 0.272-0.48 0.472-1.016 0.6-1.608s0.192-1.2 0.192-1.824v-8.712h3.936v8.712c0 1.184-0.152 2.288-0.456 3.312-0.288 1.024-0.736 1.928-1.344 2.712-0.608 0.768-1.392 1.368-2.352 1.8-0.944 0.432-2.080 0.648-3.408 0.648zM111.394 24v-17.040h6.36c1.872 0 3.432 0.384 4.68 1.152 1.264 0.752 2.216 1.776 2.856 3.072 0.64 1.28 0.96 2.704 0.96 4.272 0 1.728-0.352 3.232-1.056 4.512s-1.696 2.272-2.976 2.976c-1.264 0.704-2.752 1.056-4.464 1.056h-6.36zM122.242 15.456c0-0.992-0.176-1.864-0.528-2.616-0.352-0.768-0.864-1.36-1.536-1.776-0.672-0.432-1.48-0.648-2.424-0.648h-2.424v10.128h2.424c0.96 0 1.768-0.216 2.424-0.648 0.672-0.448 1.184-1.056 1.536-1.824 0.352-0.784 0.528-1.656 0.528-2.616zM129.293 24v-17.040h3.936v17.040h-3.936zM144.672 24.144c-1.28 0-2.44-0.24-3.48-0.72-1.024-0.496-1.912-1.152-2.664-1.968-0.736-0.832-1.304-1.76-1.704-2.784-0.4-1.040-0.6-2.112-0.6-3.216 0-1.136 0.208-2.216 0.624-3.24 0.432-1.024 1.024-1.936 1.776-2.736 0.768-0.816 1.672-1.456 2.712-1.92s2.176-0.696 3.408-0.696c1.264 0 2.408 0.248 3.432 0.744 1.040 0.48 1.928 1.136 2.664 1.968 0.752 0.832 1.328 1.768 1.728 2.808 0.4 1.024 0.6 2.072 0.6 3.144 0 1.136-0.208 2.216-0.624 3.24s-1.008 1.944-1.776 2.76c-0.768 0.8-1.672 1.44-2.712 1.92-1.024 0.464-2.152 0.696-3.384 0.696zM140.232 15.504c0 0.656 0.096 1.296 0.288 1.92 0.192 0.608 0.472 1.152 0.84 1.632 0.384 0.48 0.856 0.864 1.416 1.152s1.2 0.432 1.92 0.432c0.752 0 1.408-0.144 1.968-0.432 0.56-0.304 1.024-0.704 1.392-1.2s0.64-1.048 0.816-1.656c0.192-0.624 0.288-1.256 0.288-1.896 0-0.656-0.096-1.288-0.288-1.896s-0.48-1.152-0.864-1.632c-0.384-0.496-0.856-0.88-1.416-1.152s-1.192-0.408-1.896-0.408c-0.752 0-1.408 0.144-1.968 0.432-0.544 0.288-1.008 0.68-1.392 1.176-0.368 0.48-0.648 1.032-0.84 1.656-0.176 0.608-0.264 1.232-0.264 1.872z"></path>
</symbol>
<symbol id="icon-twitter-1" viewBox="0 0 32 32">
<path fill="#f4f4fd" style="fill: var(--color1, #f4f4fd)" d="M32 6.078c-1.19 0.522-2.458 0.868-3.78 1.036 1.36-0.812 2.398-2.088 2.886-3.626-1.268 0.756-2.668 1.29-4.16 1.588-1.204-1.282-2.92-2.076-4.792-2.076-3.632 0-6.556 2.948-6.556 6.562 0 0.52 0.044 1.020 0.152 1.496-5.454-0.266-10.28-2.88-13.522-6.862-0.566 0.982-0.898 2.106-0.898 3.316 0 2.272 1.17 4.286 2.914 5.452-1.054-0.020-2.088-0.326-2.964-0.808 0 0.020 0 0.046 0 0.072 0 3.188 2.274 5.836 5.256 6.446-0.534 0.146-1.116 0.216-1.72 0.216-0.42 0-0.844-0.024-1.242-0.112 0.85 2.598 3.262 4.508 6.13 4.57-2.232 1.746-5.066 2.798-8.134 2.798-0.538 0-1.054-0.024-1.57-0.090 2.906 1.874 6.35 2.944 10.064 2.944 12.072 0 18.672-10 18.672-18.668 0-0.29-0.010-0.57-0.024-0.848 1.302-0.924 2.396-2.078 3.288-3.406z"></path>
</symbol>
</defs>
</svg>
